# xmcd
#
# Track frame offsets:
#	182
#	15252
#	31637
#	43775
#	52997
#	70355
#	89150
#	102735
#	119205
#	135825
#
# Disc length: 2026 seconds
# Revision: 3
# Processed by: cddbd v1.5.2PL0 Copyright (c) Steve Scherf et al.
# Submitted via: dBpowerAMP V12.0
#
DISCID=8607e80a
DTITLE=Pam Tillis - Collection
DYEAR=1994
DGENRE=Country
TTITLE0=Maybe It Was Memphis
TTITLE1=One of Those Things
TTITLE2=I Thought I'd About Had It With Love
TTITLE3=There Goes My Love
TTITLE4=Sometimes a Stranger Will Do
TTITLE5=Those Memories of You
TTITLE6=I Wish She Wouldn't Treat You That Way
TTITLE7=Tennessee Nights
TTITLE8=Five Minutes
TTITLE9=Goodbye Highway
EXTD=
EXTT0=
EXTT1=
EXTT2=
EXTT3=
EXTT4=
EXTT5=
EXTT6=
EXTT7=
EXTT8=
EXTT9=
PLAYORDER=
